HIERARCHY
ROOT Hips
{
	OFFSET	0.000000	0.000000	0.000000
	CHANNELS 6 Xposition Yposition Zposition Zrotation Xrotation Yrotation
	JOINT LeftUpLeg
	{
		OFFSET	12.830505	-7.049846	-1.643436
		CHANNELS 3 Zrotation Xrotation Yrotation
		JOINT LeftLeg
		{
			OFFSET	0.620834	-39.957500	-1.919341
			CHANNELS 3 Zrotation Xrotation Yrotation
			JOINT LeftFoot
			{
				OFFSET	-0.413890	-44.704761	-3.870325
				CHANNELS 3 Zrotation Xrotation Yrotation
				JOINT LeftFootHeel
				{
					OFFSET	0.164738	-8.918193	-6.555130
					CHANNELS 3 Zrotation Xrotation Yrotation
					End Site
					{
						OFFSET	-0.604053	0.000000	21.044330
					}
				}
			}
		}
	}
	JOINT RightUpLeg
	{
		OFFSET	-12.830505	-7.049846	-1.643436
		CHANNELS 3 Zrotation Xrotation Yrotation
		JOINT RightLeg
		{
			OFFSET	-0.620834	-39.957500	-1.919341
			CHANNELS 3 Zrotation Xrotation Yrotation
			JOINT RightFoot
			{
				OFFSET	0.413890	-44.704761	-3.870325
				CHANNELS 3 Zrotation Xrotation Yrotation
				JOINT RightFootHeel
				{
					OFFSET	-0.164738	-8.918193	-6.555130
					CHANNELS 3 Zrotation Xrotation Yrotation
					End Site
					{
						OFFSET	0.604053	0.000000	21.044330
					}
				}
			}
		}
	}
	JOINT Spine
	{
		OFFSET	0.000000	12.498170	1.820647
		CHANNELS 3 Zrotation Xrotation Yrotation
		JOINT Spine1
		{
			OFFSET	0.000000	7.620000	0.000000
			CHANNELS 3 Zrotation Xrotation Yrotation
			JOINT LeftShoulder
			{
				OFFSET	9.167800	29.136339	-5.551221
				CHANNELS 3 Zrotation Xrotation Yrotation
				JOINT LeftArm
				{
					OFFSET	12.133453	-3.880866	1.461963
					CHANNELS 3 Zrotation Xrotation Yrotation
					JOINT LeftForeArm
					{
						OFFSET	2.507115	-31.664908	-1.069404
						CHANNELS 3 Zrotation Xrotation Yrotation
						JOINT LeftHand
						{
							OFFSET	4.116172	-24.512624	5.009439
							CHANNELS 3 Zrotation Xrotation Yrotation
							End Site
							{
								OFFSET	-0.213136	-10.931856	2.182134
							}
						}
					}
				}
			}
			JOINT RightShoulder
			{
				OFFSET	-9.167800	29.136339	-5.551221
				CHANNELS 3 Zrotation Xrotation Yrotation
				JOINT RightArm
				{
					OFFSET	-12.133453	-3.880866	1.461963
					CHANNELS 3 Zrotation Xrotation Yrotation
					JOINT RightForeArm
					{
						OFFSET	-2.507115	-31.664908	-1.069404
						CHANNELS 3 Zrotation Xrotation Yrotation
						JOINT RightHand
						{
							OFFSET	-4.116172	-24.512624	5.009439
							CHANNELS 3 Zrotation Xrotation Yrotation
							End Site
							{
								OFFSET	0.213136	-10.931856	2.182134
							}
						}
					}
				}
			}
			JOINT Neck
			{
				OFFSET	0.000000	32.926272	-3.635654
				CHANNELS 3 Zrotation Xrotation Yrotation
				JOINT Head
				{
					OFFSET	0.000000	12.481178	4.646143
					CHANNELS 3 Zrotation Xrotation Yrotation
					End Site
					{
						OFFSET	0.000000	17.715204	-2.222063
					}
				}
			}
		}
	}
}
MOTION
Frames:     16
Frame Time: 0.016667
-11.493814	99.032326	14.480351	7.363940	8.211122	-3.443126	-3.777780	-6.465339	4.822764	4.564928	13.060955	-5.068880	-9.159986	-15.610932	0.115682	0.	0.	0.	-20.725775	-38.101509	-12.080144	1.553437	33.574333	-0.245789	2.802764	-1.739105	-6.848354	0.	0.	0.	-0.000001	-0.000000	0.000002	3.510651	16.929634	0.615513	5.632762	-7.240614	0.124517	1.345774	10.894820	-6.376853	-8.784513	-17.292372	-4.244013	8.086329	1.221387	-4.237110	-8.716841	-6.738494	1.171917	-74.007538	-38.277908	-66.046165	99.121017	-70.820351	79.094070	-51.386402	24.616867	-8.301091	-4.629160	-6.475138	-24.296221	1.054900	-12.243296	-15.981929	
-11.455708	99.023111	14.494302	7.344885	8.161165	-3.477888	-3.758537	-6.419141	4.850178	4.563373	13.073639	-5.062660	-9.157709	-15.621447	0.121647	0.	0.	0.	-20.738390	-38.057537	-12.078865	1.590081	33.584751	-0.240748	2.806934	-1.745465	-6.823301	0.	0.	0.	-0.000001	0.000001	-0.000000	3.457976	16.985989	0.757769	5.656725	-7.247554	0.037438	1.355573	10.901972	-6.517346	-8.768384	-17.314262	-4.115103	8.089577	1.173692	-3.919280	-8.853082	-6.915152	1.113148	-73.456543	-38.190964	-67.314026	102.084061	-69.190506	74.781403	-48.673252	31.177116	-10.266446	-4.572031	-6.462241	-24.431873	1.096583	-12.157136	-15.962855	
-11.455689	99.029681	14.484838	7.331642	8.123651	-3.484770	-3.755032	-6.403324	4.805045	4.558915	13.131116	-5.049841	-9.142251	-15.659686	0.160250	0.	0.	0.	-20.734127	-38.005398	-12.155683	1.565044	33.551613	-0.250342	2.799613	-1.719636	-6.713429	0.	0.	0.	-0.000001	0.000000	0.000002	3.382571	17.089642	1.111719	5.631096	-7.300508	-0.147243	1.352585	10.878728	-6.684069	-8.698933	-17.380560	-4.018949	8.290023	1.066973	-3.471266	-8.920865	-7.153441	0.737857	-72.983185	-37.903755	-67.586456	101.690636	-68.863373	77.874985	-54.198277	29.959160	-6.651080	-4.555007	-6.494986	-24.770046	1.268432	-12.001914	-15.996759	
-11.459002	99.032297	14.474155	7.326176	8.107409	-3.482507	-3.754280	-6.393795	4.764195	4.552368	13.145402	-5.047232	-9.130003	-15.669919	0.198693	0.	0.	0.	-20.727339	-37.986469	-12.164782	1.564008	33.537682	-0.264106	2.794620	-1.706726	-6.687085	0.	0.	0.	0.000001	0.000001	0.000001	3.381081	17.250185	1.273965	5.623015	-7.356835	-0.142834	1.310990	10.773263	-6.682779	-8.714675	-17.448620	-3.973699	8.436300	0.983024	-3.489320	-8.907008	-7.226696	0.655641	-72.945206	-37.513432	-66.681183	101.274239	-71.014992	86.022095	-56.818684	25.499413	-4.257561	-4.633280	-6.646402	-24.811195	1.399594	-11.978389	-16.366528	
-11.458549	99.033149	14.470449	7.327594	8.108569	-3.464978	-3.760685	-6.404379	4.748303	4.556670	13.156400	-5.059153	-9.127182	-15.672265	0.207538	0.	0.	0.	-20.741955	-37.981358	-12.186378	1.564011	33.537689	-0.264104	2.794621	-1.706728	-6.687084	0.	0.	0.	0.000000	0.000000	0.000001	3.413933	17.310343	1.275896	5.626788	-7.357154	-0.091504	1.270990	10.701342	-6.634763	-8.750175	-17.469635	-3.961070	8.472910	0.925259	-3.526732	-8.917703	-7.181823	0.721459	-72.985977	-37.329361	-66.196686	-78.301018	-107.631180	-89.455467	-57.170948	22.933769	-3.806890	-4.651673	-6.741079	-24.712547	1.347369	-12.009712	-16.618860	
-11.468743	99.038789	14.433426	7.342702	8.140586	-3.397473	-3.791735	-6.472598	4.730691	4.583533	13.190913	-5.119281	-9.127183	-15.672265	0.207538	0.	0.	0.	-20.810532	-37.994354	-12.252440	1.596153	33.518070	-0.327677	2.780076	-1.680985	-6.669177	0.	0.	0.	-0.000000	0.000001	0.000003	3.532200	17.312927	1.141957	5.657820	-7.299713	0.035221	1.125210	10.637222	-6.454751	-8.816566	-17.498579	-3.963814	8.455698	0.789675	-3.523182	-8.935235	-7.023749	0.907370	-73.158844	-37.276421	-65.686340	-78.164307	-105.353569	-82.525055	-57.958515	16.033234	-3.862287	-4.698108	-6.852840	-24.439257	1.104849	-12.166168	-17.008167	
-11.480273	99.034835	14.378250	7.363145	8.182807	-3.299121	-3.836549	-6.592493	4.829917	4.652323	13.259343	-5.341108	-9.122760	-15.676185	0.212407	0.	0.	0.	-20.894724	-38.039524	-12.198010	1.702038	33.535194	-0.584982	2.773990	-1.665305	-6.636726	0.	0.	0.	-0.000000	0.000001	-0.000000	3.758169	17.239044	0.754808	5.705129	-7.262167	0.183293	0.897841	10.785716	-6.209045	-8.858259	-17.571354	-3.949561	8.399639	0.739279	-3.265001	-8.930176	-6.884808	1.112856	-73.615379	-37.600281	-66.896576	-80.647049	-104.295937	-77.674957	-60.005363	4.286141	-3.379726	-4.878568	-6.825397	-24.236118	0.836317	-12.443785	-17.139767	
-11.486791	99.031715	14.351970	7.367546	8.191759	-3.276927	-3.854419	-6.669311	4.991355	4.703390	13.325002	-5.552807	-9.106236	-15.690876	0.228699	0.	0.	0.	-20.909548	-38.060268	-12.130263	1.760376	33.540012	-0.725576	2.769204	-1.653417	-6.613462	0.	0.	0.	0.000000	-0.000001	0.000002	3.850143	17.233856	0.568573	5.738030	-7.295732	0.218784	0.850539	10.923394	-6.220668	-8.844996	-17.540403	-3.938374	8.334400	0.737040	-3.059243	-8.902706	-6.900436	1.147955	-73.722496	-37.700993	-67.244827	-81.046410	-104.053368	-74.968590	-60.701218	0.973185	-2.830769	-4.906087	-6.779655	-24.146507	0.736298	-12.475136	-17.153267	
-11.486791	99.031715	14.351970	7.367546	8.191759	-3.276927	-3.854419	-6.669311	4.991355	4.703390	13.325002	-5.552807	-9.106236	-15.690876	0.228699	0.	0.	0.	-20.909548	-38.060268	-12.130263	1.760376	33.540012	-0.725576	2.769204	-1.653417	-6.613462	0.	0.	0.	0.000000	-0.000001	0.000002	3.850143	17.233856	0.568573	5.738030	-7.295732	0.218784	0.850539	10.923394	-6.220668	-8.844996	-17.540403	-3.938374	8.334400	0.737040	-3.059243	-8.902706	-6.900436	1.147955	-73.722496	-37.700993	-67.244827	-81.046410	-104.053368	-74.968590	-60.701218	0.973185	-2.830769	-4.906087	-6.779655	-24.146507	0.736298	-12.475136	-17.153267	
-11.492574	99.035097	14.332364	7.378930	8.218506	-3.239716	-3.888425	-6.793491	5.166463	4.767322	13.424502	-5.802142	-9.081827	-15.712667	0.247790	0.	0.	0.	-20.954153	-38.075127	-12.172652	1.777246	33.528160	-0.782520	2.763117	-1.637597	-6.580303	0.	0.	0.	0.000001	-0.000000	0.000001	3.884718	17.224083	0.347697	5.857204	-7.352469	0.263842	0.870469	10.980590	-6.375741	-8.825320	-17.298517	-4.103662	8.277039	0.828987	-3.113142	-8.806842	-6.905954	1.208644	-74.326744	-37.626556	-67.626991	-83.446938	-105.331161	-79.176971	-60.482986	2.707626	-2.683183	-4.782211	-6.756526	-24.094193	0.683936	-12.383090	-17.077822	
-11.493552	99.028033	14.302739	7.380224	8.219574	-3.223614	-3.912848	-6.868080	5.153862	4.776055	13.520289	-5.821601	-9.055819	-15.736191	0.256366	0.	0.	0.	-20.969551	-38.099274	-12.183908	1.780881	33.546505	-0.816140	2.762563	-1.626718	-6.560627	0.	0.	0.	-0.000001	-0.000000	0.000003	3.884185	17.231707	0.223943	5.952811	-7.387697	0.273285	0.914974	10.997416	-6.420464	-8.799938	-17.167871	-4.318341	8.231441	1.004616	-3.458385	-8.721433	-6.891687	1.248004	-74.643158	-37.481613	-67.245148	-83.110245	-106.882164	-85.440910	-59.206425	7.488175	-3.361499	-4.629008	-6.738078	-24.159245	0.702599	-12.344563	-16.904484	
-11.483037	99.028460	14.296528	7.380477	8.219780	-3.220488	-3.940445	-6.951250	5.030329	4.774062	13.624497	-5.763678	-9.029780	-15.758331	0.313151	0.	0.	0.	-20.976013	-38.097858	-12.239621	1.737288	33.538387	-0.752699	2.774076	-1.616591	-6.557546	0.	0.	0.	-0.000000	-0.000001	0.000001	3.871291	17.241882	0.132186	6.003356	-7.415744	0.251110	1.002602	11.002844	-6.405902	-8.774264	-17.093367	-4.501607	8.202078	1.132948	-3.881832	-8.652087	-6.870519	1.278684	-74.651649	-37.596062	-67.129875	99.291550	-71.394020	87.598228	-55.809864	15.014407	-5.731699	-4.491218	-6.679503	-24.278244	0.761438	-12.307695	-16.768652	
-11.478030	99.029952	14.324910	7.369495	8.195302	-3.269760	-3.941179	-6.973212	4.934667	4.741776	13.702982	-5.691730	-8.989070	-15.793170	0.390446	0.	0.	0.	-20.927467	-38.074493	-12.266589	1.667275	33.534908	-0.675782	2.787376	-1.624757	-6.511015	0.	0.	0.	-0.000000	0.000001	0.000001	3.857290	17.277031	0.128070	6.019741	-7.432752	0.225190	1.115847	11.000761	-6.450407	-8.808615	-17.078505	-4.475024	8.214386	1.147640	-4.184486	-8.681706	-6.852448	1.288847	-74.480675	-37.892769	-67.383774	101.264473	-70.396851	81.631783	-51.098824	24.246500	-8.659107	-4.377810	-6.636014	-24.442774	0.783414	-12.204949	-16.614443	
-11.484476	99.034138	14.337145	7.364830	8.191466	-3.327668	-3.940782	-6.998501	4.869802	4.715695	13.752604	-5.631999	-8.960012	-15.817605	0.456299	0.	0.	0.	-20.885626	-38.074886	-12.284739	1.624492	33.510849	-0.651668	2.784780	-1.609831	-6.435775	0.	0.	0.	0.000000	0.000001	0.000001	3.838691	17.293077	0.244806	6.031192	-7.458162	0.128770	1.201079	11.000299	-6.548712	-8.720827	-17.039629	-4.432506	8.175116	1.077827	-3.985217	-8.761496	-6.922712	1.189173	-74.215912	-38.065914	-68.189392	101.392349	-69.456146	78.146439	-48.952221	29.810610	-7.877845	-4.287911	-6.588223	-24.708481	0.793918	-12.085912	-16.495972	
-11.492024	99.038072	14.341607	7.360082	8.187569	-3.386510	-3.934610	-7.009527	4.868001	4.706954	13.769608	-5.582392	-8.955962	-15.820901	0.468843	0.	0.	0.	-20.841597	-38.079113	-12.282963	1.597569	33.482224	-0.622908	2.776464	-1.589070	-6.390275	0.	0.	0.	-0.000001	0.000001	0.000000	3.790465	17.425415	0.596623	6.029541	-7.609785	-0.128213	1.227435	10.999249	-6.640419	-8.633837	-17.070894	-4.306010	8.259195	1.024600	-3.653505	-8.843684	-7.252117	0.858629	-73.849556	-37.782181	-68.341591	100.219131	-68.805206	79.940186	-50.919727	28.688950	-6.097076	-4.204626	-6.680753	-25.103065	0.792631	-11.932651	-16.584642	
-11.500645	99.044854	14.342097	7.361982	8.182455	-3.436514	-3.932211	-7.010944	4.900391	4.703253	13.777225	-5.593140	-8.946477	-15.828574	0.498126	0.	0.	0.	-20.811888	-38.077026	-12.303587	1.570390	33.447739	-0.546633	2.762240	-1.565941	-6.382791	0.	0.	0.	-0.000001	-0.000000	0.000002	3.801883	17.565548	0.771400	6.009389	-7.670595	-0.058412	1.226069	10.903763	-6.660645	-8.557277	-17.147167	-4.169564	8.466458	0.888111	-3.336989	-8.866521	-7.297773	0.806541	-73.849663	-37.373901	-67.299431	101.178276	-70.280663	86.125328	-52.710331	25.429958	-4.567864	-4.257805	-6.836372	-25.148920	0.822094	-11.994542	-16.903681	
